{
    "asset" : {
        "generator" : "Khronos glTF Blender I/O v1.6.16",
        "version" : "2.0"
    },
    "scene" : 0,
    "scenes" : [
        {
            "name" : "Scene",
            "nodes" : [
                0
            ]
        }
    ],
    "nodes" : [
        {
            "mesh" : 0,
            "name" : "Building_Mesh_120",
            "translation" : [
                32.767112731933594,
                13.037202835083008,
                -90.25797271728516
            ]
        }
    ],
    "materials" : [
        {
            "alphaCutoff" : 0.5,
            "alphaMode" : "MASK",
            "doubleSided" : true,
            "name" : "Building_Mat_120d",
            "pbrMetallicRoughness" : {
                "baseColorTexture" : {
                    "index" : 0
                },
                "roughnessFactor" : 0.858578622341156
            }
        },
        {
            "doubleSided" : true,
            "name" : "Building_Mat_120f",
            "pbrMetallicRoughness" : {
                "baseColorTexture" : {
                    "index" : 1
                },
                "roughnessFactor" : 0.858578622341156
            }
        },
        {
            "doubleSided" : true,
            "name" : "Building_Mat_120e",
            "pbrMetallicRoughness" : {
                "baseColorTexture" : {
                    "index" : 2
                },
                "roughnessFactor" : 0.858578622341156
            }
        },
        {
            "doubleSided" : true,
            "name" : "Building_Mat_120c",
            "pbrMetallicRoughness" : {
                "baseColorTexture" : {
                    "index" : 3
                },
                "roughnessFactor" : 0.858578622341156
            }
        },
        {
            "doubleSided" : true,
            "name" : "Building_Mat_120a",
            "pbrMetallicRoughness" : {
                "baseColorTexture" : {
                    "index" : 4
                },
                "roughnessFactor" : 0.858578622341156
            }
        }
    ],
    "meshes" : [
        {
            "name" : "\u7f51\u683c",
            "primitives" : [
                {
                    "attributes" : {
                        "POSITION" : 0,
                        "NORMAL" : 1,
                        "TEXCOORD_0" : 2
                    },
                    "indices" : 3,
                    "material" : 0
                },
                {
                    "attributes" : {
                        "POSITION" : 4,
                        "NORMAL" : 5,
                        "TEXCOORD_0" : 6
                    },
                    "indices" : 7,
                    "material" : 1
                },
                {
                    "attributes" : {
                        "POSITION" : 8,
                        "NORMAL" : 9,
                        "TEXCOORD_0" : 10
                    },
                    "indices" : 11,
                    "material" : 2
                },
                {
                    "attributes" : {
                        "POSITION" : 12,
                        "NORMAL" : 13,
                        "TEXCOORD_0" : 14
                    },
                    "indices" : 15,
                    "material" : 3
                },
                {
                    "attributes" : {
                        "POSITION" : 16,
                        "NORMAL" : 17,
                        "TEXCOORD_0" : 18
                    },
                    "indices" : 19,
                    "material" : 3
                },
                {
                    "attributes" : {
                        "POSITION" : 20,
                        "NORMAL" : 21,
                        "TEXCOORD_0" : 22
                    },
                    "indices" : 23,
                    "material" : 4
                }
            ]
        }
    ],
    "textures" : [
        {
            "sampler" : 0,
            "source" : 0
        },
        {
            "sampler" : 0,
            "source" : 1
        },
        {
            "sampler" : 0,
            "source" : 2
        },
        {
            "sampler" : 0,
            "source" : 3
        },
        {
            "sampler" : 0,
            "source" : 4
        }
    ],
    "images" : [
        {
            "bufferView" : 4,
            "mimeType" : "image/png",
            "name" : "Building_Tex_120d_D"
        },
        {
            "bufferView" : 9,
            "mimeType" : "image/png",
            "name" : "Building_Tex_120f_D"
        },
        {
            "bufferView" : 14,
            "mimeType" : "image/png",
            "name" : "Building_Tex_120e_D"
        },
        {
            "bufferView" : 19,
            "mimeType" : "image/png",
            "name" : "Building_Tex_120c_D"
        },
        {
            "bufferView" : 28,
            "mimeType" : "image/png",
            "name" : "Building_Tex_120a_D"
        }
    ],
    "accessors" : [
        {
            "bufferView" : 0,
            "componentType" : 5126,
            "count" : 1232,
            "max" : [
                26.31330108642578,
                49.526641845703125,
                6.556008338928223
            ],
            "min" : [
                -26.443607330322266,
                0.5162227749824524,
                -8.123359680175781
            ],
            "type" : "VEC3"
        },
        {
            "bufferView" : 1,
            "componentType" : 5126,
            "count" : 1232,
            "type" : "VEC3"
        },
        {
            "bufferView" : 2,
            "componentType" : 5126,
            "count" : 1232,
            "type" : "VEC2"
        },
        {
            "bufferView" : 3,
            "componentType" : 5123,
            "count" : 1734,
            "type" : "SCALAR"
        },
        {
            "bufferView" : 5,
            "componentType" : 5126,
            "count" : 612,
            "max" : [
                21.049396514892578,
                50.99985122680664,
                4.575160980224609
            ],
            "min" : [
                -16.40004539489746,
                0.5499998331069946,
                -7.026031494140625
            ],
            "type" : "VEC3"
        },
        {
            "bufferView" : 6,
            "componentType" : 5126,
            "count" : 612,
            "type" : "VEC3"
        },
        {
            "bufferView" : 7,
            "componentType" : 5126,
            "count" : 612,
            "type" : "VEC2"
        },
        {
            "bufferView" : 8,
            "componentType" : 5123,
            "count" : 1224,
            "type" : "SCALAR"
        },
        {
            "bufferView" : 10,
            "componentType" : 5126,
            "count" : 17457,
            "max" : [
                26.500003814697266,
                55.00030517578125,
                8.825159072875977
            ],
            "min" : [
                -26.498687744140625,
                0.5162232518196106,
                -8.877425193786621
            ],
            "type" : "VEC3"
        },
        {
            "bufferView" : 11,
            "componentType" : 5126,
            "count" : 17457,
            "type" : "VEC3"
        },
        {
            "bufferView" : 12,
            "componentType" : 5126,
            "count" : 17457,
            "type" : "VEC2"
        },
        {
            "bufferView" : 13,
            "componentType" : 5123,
            "count" : 21912,
            "type" : "SCALAR"
        },
        {
            "bufferView" : 15,
            "componentType" : 5126,
            "count" : 2199,
            "max" : [
                26.800003051757812,
                6.550018787384033,
                8.825157165527344
            ],
            "min" : [
                -26.798688888549805,
                -3.159046173095703e-06,
                -8.947426795959473
            ],
            "type" : "VEC3"
        },
        {
            "bufferView" : 16,
            "componentType" : 5126,
            "count" : 2199,
            "type" : "VEC3"
        },
        {
            "bufferView" : 17,
            "componentType" : 5126,
            "count" : 2199,
            "type" : "VEC2"
        },
        {
            "bufferView" : 18,
            "componentType" : 5123,
            "count" : 4029,
            "type" : "SCALAR"
        },
        {
            "bufferView" : 20,
            "componentType" : 5126,
            "count" : 1020,
            "max" : [
                26.30001449584961,
                56.900062561035156,
                8.625157356262207
            ],
            "min" : [
                -26.498687744140625,
                0.54999840259552,
                -8.626033782958984
            ],
            "type" : "VEC3"
        },
        {
            "bufferView" : 21,
            "componentType" : 5126,
            "count" : 1020,
            "type" : "VEC3"
        },
        {
            "bufferView" : 22,
            "componentType" : 5126,
            "count" : 1020,
            "type" : "VEC2"
        },
        {
            "bufferView" : 23,
            "componentType" : 5123,
            "count" : 1818,
            "type" : "SCALAR"
        },
        {
            "bufferView" : 24,
            "componentType" : 5126,
            "count" : 16345,
            "max" : [
                26.872121810913086,
                57.00006103515625,
                8.88775634765625
            ],
            "min" : [
                -26.924657821655273,
                6.5499958992004395,
                -8.947426795959473
            ],
            "type" : "VEC3"
        },
        {
            "bufferView" : 25,
            "componentType" : 5126,
            "count" : 16345,
            "type" : "VEC3"
        },
        {
            "bufferView" : 26,
            "componentType" : 5126,
            "count" : 16345,
            "type" : "VEC2"
        },
        {
            "bufferView" : 27,
            "componentType" : 5123,
            "count" : 28821,
            "type" : "SCALAR"
        }
    ],
    "bufferViews" : [
        {
            "buffer" : 0,
            "byteLength" : 14784,
            "byteOffset" : 0
        },
        {
            "buffer" : 0,
            "byteLength" : 14784,
            "byteOffset" : 14784
        },
        {
            "buffer" : 0,
            "byteLength" : 9856,
            "byteOffset" : 29568
        },
        {
            "buffer" : 0,
            "byteLength" : 3468,
            "byteOffset" : 39424
        },
        {
            "buffer" : 0,
            "byteLength" : 2868,
            "byteOffset" : 42892
        },
        {
            "buffer" : 0,
            "byteLength" : 7344,
            "byteOffset" : 45760
        },
        {
            "buffer" : 0,
            "byteLength" : 7344,
            "byteOffset" : 53104
        },
        {
            "buffer" : 0,
            "byteLength" : 4896,
            "byteOffset" : 60448
        },
        {
            "buffer" : 0,
            "byteLength" : 2448,
            "byteOffset" : 65344
        },
        {
            "buffer" : 0,
            "byteLength" : 18427,
            "byteOffset" : 67792
        },
        {
            "buffer" : 0,
            "byteLength" : 209484,
            "byteOffset" : 86220
        },
        {
            "buffer" : 0,
            "byteLength" : 209484,
            "byteOffset" : 295704
        },
        {
            "buffer" : 0,
            "byteLength" : 139656,
            "byteOffset" : 505188
        },
        {
            "buffer" : 0,
            "byteLength" : 43824,
            "byteOffset" : 644844
        },
        {
            "buffer" : 0,
            "byteLength" : 40901,
            "byteOffset" : 688668
        },
        {
            "buffer" : 0,
            "byteLength" : 26388,
            "byteOffset" : 729572
        },
        {
            "buffer" : 0,
            "byteLength" : 26388,
            "byteOffset" : 755960
        },
        {
            "buffer" : 0,
            "byteLength" : 17592,
            "byteOffset" : 782348
        },
        {
            "buffer" : 0,
            "byteLength" : 8058,
            "byteOffset" : 799940
        },
        {
            "buffer" : 0,
            "byteLength" : 135856,
            "byteOffset" : 808000
        },
        {
            "buffer" : 0,
            "byteLength" : 12240,
            "byteOffset" : 943856
        },
        {
            "buffer" : 0,
            "byteLength" : 12240,
            "byteOffset" : 956096
        },
        {
            "buffer" : 0,
            "byteLength" : 8160,
            "byteOffset" : 968336
        },
        {
            "buffer" : 0,
            "byteLength" : 3636,
            "byteOffset" : 976496
        },
        {
            "buffer" : 0,
            "byteLength" : 196140,
            "byteOffset" : 980132
        },
        {
            "buffer" : 0,
            "byteLength" : 196140,
            "byteOffset" : 1176272
        },
        {
            "buffer" : 0,
            "byteLength" : 130760,
            "byteOffset" : 1372412
        },
        {
            "buffer" : 0,
            "byteLength" : 57642,
            "byteOffset" : 1503172
        },
        {
            "buffer" : 0,
            "byteLength" : 164318,
            "byteOffset" : 1560816
        }
    ],
    "samplers" : [
        {
            "magFilter" : 9729,
            "minFilter" : 9987
        }
    ],
    "buffers" : [
        {
            "byteLength" : 1725136,
            "uri" : "data:application/octet-stream;base64,"
        }
    ]
}
