{
  "accessors": [
    {
      "bufferView": 2,
      "componentType": 5126,
      "count": 5477,
      "max": [
        0.38651901483535767,
        0.17084500193595886,
        1.7250579595565796
      ],
      "min": [
        -0.38651901483535767,
        -0.11709800362586975,
        0.20364099740982056
      ],
      "type": "VEC3"
    },
    {
      "bufferView": 2,
      "byteOffset": 65724,
      "componentType": 5126,
      "count": 5477,
      "max": [
        0.9999377727508545,
        0.9999911785125732,
        0.9999808073043823
      ],
      "min": [
        -0.9999377727508545,
        -0.9999942779541016,
        -0.9999459981918335
      ],
      "type": "VEC3"
    },
    {
      "bufferView": 1,
      "componentType": 5126,
      "count": 5477,
      "max": [
        0.9950399994850159,
        0.9970459938049316
      ],
      "min": [
        0.0027310000732541084,
        0.004935000091791153
      ],
      "type": "VEC2"
    },
    {
      "bufferView": 0,
      "componentType": 5125,
      "count": 23664,
      "type": "SCALAR"
    },
    {
      "bufferView": 2,
      "byteOffset": 131448,
      "componentType": 5126,
      "count": 4846,
      "max": [
        0.4057219922542572,
        0.1549520045518875,
        1.752629041671753
      ],
      "min": [
        -0.4057219922542572,
        -0.14043599367141724,
        -0.006167000159621239
      ],
      "type": "VEC3"
    },
    {
      "bufferView": 2,
      "byteOffset": 189600,
      "componentType": 5126,
      "count": 4846,
      "max": [
        0.9999182224273682,
        0.9999427795410156,
        0.9994954466819763
      ],
      "min": [
        -0.9999182224273682,
        -0.9999978542327881,
        -0.9999995231628418
      ],
      "type": "VEC3"
    },
    {
      "bufferView": 1,
      "byteOffset": 43816,
      "componentType": 5126,
      "count": 4846,
      "max": [
        0.9954230189323425,
        0.9939010143280029
      ],
      "min": [
        0.005760000087320805,
        0.0041669998317956924
      ],
      "type": "VEC2"
    },
    {
      "bufferView": 0,
      "byteOffset": 94656,
      "componentType": 5125,
      "count": 19860,
      "type": "SCALAR"
    },
    {
      "bufferView": 2,
      "byteOffset": 247752,
      "componentType": 5126,
      "count": 218,
      "max": [
        0.29276901483535767,
        0.11081799864768982,
        1.3281500339508057
      ],
      "min": [
        -0.29276901483535767,
        -0.014573999680578709,
        1.1034159660339355
      ],
      "type": "VEC3"
    },
    {
      "bufferView": 2,
      "byteOffset": 250368,
      "componentType": 5126,
      "count": 218,
      "max": [
        0.9883157014846802,
        0.993758499622345,
        0.485321581363678
      ],
      "min": [
        -0.9883157014846802,
        -0.9978129863739014,
        -0.9271178245544434
      ],
      "type": "VEC3"
    },
    {
      "bufferView": 1,
      "byteOffset": 82584,
      "componentType": 5126,
      "count": 218,
      "max": [
        0.5172380208969116,
        0.9806960225105286
      ],
      "min": [
        0.06389600038528442,
        0.021918000653386116
      ],
      "type": "VEC2"
    },
    {
      "bufferView": 0,
      "byteOffset": 174096,
      "componentType": 5125,
      "count": 504,
      "type": "SCALAR"
    }
  ],
  "asset": {
    "extras": {
      "author": "LesunkOfficial (https://sketchfab.com/LesunkOfficial)",
      "license": "CC-BY-4.0 (http://creativecommons.org/licenses/by/4.0/)",
      "source": "https://sketchfab.com/3d-models/wanwan-e-girl-first-mpl-themed-skin-4a5d4000508348b1b1025c63a9c7f1c5",
      "title": "Wanwan - E-Girl (First MPL Themed Skin)"
    },
    "generator": "Sketchfab-13.48.0",
    "version": "2.0"
  },
  "bufferViews": [
    {
      "buffer": 0,
      "byteLength": 176112,
      "name": "floatBufferViews",
      "target": 34963
    },
    {
      "buffer": 0,
      "byteLength": 84328,
      "byteOffset": 176112,
      "byteStride": 8,
      "name": "floatBufferViews",
      "target": 34962
    },
    {
      "buffer": 0,
      "byteLength": 252984,
      "byteOffset": 260440,
      "byteStride": 12,
      "name": "floatBufferViews",
      "target": 34962
    }
  ],
  "buffers": [
    {
      "byteLength": 513424,
      "uri": "scene.bin"
    }
  ],
  "images": [
    {
      "uri": "textures/Material.003_baseColor.png"
    },
    {
      "uri": "textures/Material.004_baseColor.png"
    }
  ],
  "materials": [
    {
      "doubleSided": true,
      "name": "Material.003",
      "pbrMetallicRoughness": {
        "baseColorTexture": {
          "index": 0
        },
        "metallicFactor": 0.0,
        "roughnessFactor": 0.8434915419926713
      }
    },
    {
      "doubleSided": true,
      "name": "Material.004",
      "pbrMetallicRoughness": {
        "baseColorTexture": {
          "index": 1
        },
        "metallicFactor": 0.0,
        "roughnessFactor": 0.8434915419926713
      }
    },
    {
      "doubleSided": true,
      "name": "None",
      "pbrMetallicRoughness": {
        "baseColorFactor": [
          0.8,
          0.8,
          0.8,
          1.0
        ],
        "metallicFactor": 0.0
      }
    }
  ],
  "meshes": [
    {
      "name": "Object_0",
      "primitives": [
        {
          "attributes": {
            "NORMAL": 1,
            "POSITION": 0,
            "TEXCOORD_0": 2
          },
          "indices": 3,
          "material": 0,
          "mode": 4
        }
      ]
    },
    {
      "name": "Object_1",
      "primitives": [
        {
          "attributes": {
            "NORMAL": 5,
            "POSITION": 4,
            "TEXCOORD_0": 6
          },
          "indices": 7,
          "material": 1,
          "mode": 4
        }
      ]
    },
    {
      "name": "Object_2",
      "primitives": [
        {
          "attributes": {
            "NORMAL": 9,
            "POSITION": 8,
            "TEXCOORD_0": 10
          },
          "indices": 11,
          "material": 2,
          "mode": 4
        }
      ]
    }
  ],
  "nodes": [
    {
      "children": [
        1
      ],
      "matrix": [
        1.0,
        0.0,
        0.0,
        0.0,
        0.0,
        2.220446049250313e-16,
        -1.0,
        0.0,
        0.0,
        1.0,
        2.220446049250313e-16,
        0.0,
        0.0,
        0.0,
        0.0,
        1.0
      ],
      "name": "Sketchfab_model"
    },
    {
      "children": [
        2,
        3,
        4
      ],
      "name": "untitled.obj.cleaner.materialmerger.gles"
    },
    {
      "mesh": 0,
      "name": "Object_2"
    },
    {
      "mesh": 1,
      "name": "Object_3"
    },
    {
      "mesh": 2,
      "name": "Object_4"
    }
  ],
  "samplers": [
    {
      "magFilter": 9729,
      "minFilter": 9987,
      "wrapS": 10497,
      "wrapT": 10497
    }
  ],
  "scene": 0,
  "scenes": [
    {
      "name": "Sketchfab_Scene",
      "nodes": [
        0
      ]
    }
  ],
  "textures": [
    {
      "sampler": 0,
      "source": 0
    },
    {
      "sampler": 0,
      "source": 1
    }
  ]
}
